<svg width="400" height="400" xmlns="http://www.w3.org/2000/svg"><g transform="scale(.7)"><title>Globe</title><path stroke="#009688" fill="none" stroke-width="20" d="M365 111a195 195 0 1 0 2 0h-2zm3 0v390m195-195H171m44-120a260 260 0 0 0 302 0m0 240a260 260 0 0 0-302 0m136-310a250 250 0 0 0 0 382m30 0a250 250 0 0 0 0-382"/></g><title>Phone</title><path stroke="#000" stroke-width="50" stroke-linejoin="round" d="M50 25h150v350H50z"/><path fill="#FFF" d="M35 35h180v325H35z"/><path stroke-linecap="null" stroke-linejoin="round" stroke-width="10" stroke="#FFF" fill="#FFF" d="M105 377.5h40v5h-40z"/><g transform="matrix(.38 0 0 .38 27.55 114)"><title>HTML5 Logo Badge</title><path d="M71 460L30 0h451l-41 460-185 52" fill="#E34F26"/><path d="M256 472l149-41 35-394H256" fill="#EF652A"/><path d="M256 208h-75l-5-58h80V94H114l1 15 14 156h127v-57zm0 147h-1l-63-17-4-45h-56l7 89 116 32h1v-59z" fill="#EBEBEB"/><path d="M255 208v57h70l-7 73-63 17v59l116-32 1-10 13-149 2-15H255zm0-114v56h137l1-12 3-29 1-15H255z" fill="#FFF"/></g></svg>