<svg width="400" height="400" xmlns="http://www.w3.org/2000/svg">
  <g display="inline" transform="scale(0.7)">
    <title>Globe</title>
    <path stroke="#009688" fill="none" stroke-width="20"
          d="m365,111a195,195 0 1 0 2,0l-2,0zm3,0v390m195,-195h-392m44,-120a260,260 0 0 0 302,0m0,240a260,260 0 0 0 -302,0m136,-310a250,250 0 0 0 0,382m30,0a250,250 0 0 0 0,-382"/>
  </g>
  <g display="inline">
    <title>Phone</title>
    <rect fill="#000000" stroke="#000000" x="50" y="25" width="150" height="350" stroke-width="50" stroke-linejoin="round"/>
    <rect fill="#FFF" x="35" y="35" width="180" height="325"/>
    <rect height="5" width="40" y="377.5" x="105" stroke-linecap="null" stroke-linejoin="round" stroke-width="10" stroke="#FFF" fill="#FFF"/>
  </g>
  <g transform="scale(0.38) translate(72.5,300)">
    <title>HTML5 Logo Badge</title>
    <path d="m71,460l-41,-460l451,0l-41,460l-185,52" fill="#E34F26"/>
    <path d="m256,472l149,-41l35,-394l-184,0" fill="#EF652A"/>
    <path d="m256,208l-75,0l-5,-58l80,0l0,-56l-1,0l-141,0l1,15l14,156l127,0l0,-57zm0,147l-1,0l-63,-17l-4,-45l-30,0l-26,0l7,89l116,32l1,0l0,-59z"
          fill="#EBEBEB"/>
    <path d="m255,208l0,57l70,0l-7,73l-63,17l0,59l116,-32l1,-10l13,-149l2,-15l-16,0l-116,0zm0,-114l0,35l0,21l0,0l137,0l0,0l0,0l1,-12l3,-29l1,-15l-142,0z"
          fill="#FFF"/>
  </g>
</svg>
